# Blender v2.73 (sub 0) OBJ File: 'GreekTemple3.blend'
# www.blender.org
mtllib Floor1.Struct.Face.mtl
o Floor1.Struct.Face_Cube.003
v -0.256992 0.792130 3.667554
v -0.545472 0.792130 2.618141
v 0.256992 0.792130 3.667554
v 0.545472 0.792130 2.618141
v 0.270705 0.792130 2.408932
v -0.000000 0.792130 2.408932
v -0.270705 0.792130 2.408932
v 0.128496 0.792130 3.667554
v -0.000000 0.792130 3.667554
v -0.128496 0.792130 3.667554
v -0.694221 0.792130 3.317695
v -0.728468 0.792130 2.974373
v 0.694221 0.792130 3.317695
v 0.728468 0.792130 2.974373
vt 0.000000 0.588196
vt 0.578913 0.500000
vt 0.482686 0.874396
vt 0.000000 0.500000
vt 0.000000 0.411804
vt 0.160921 0.976494
vt 0.000000 0.676392
vt 0.318834 1.000000
vt 0.578913 0.685804
vt 0.482686 0.125604
vt 0.578913 0.314196
vt 0.318834 0.000000
vt 0.000000 0.323608
vt 0.160921 0.023506
vn 0.000000 1.000000 0.000000
usemtl Material.009
s off
f 10/1/1 6/2/1 2/3/1
f 6/2/1 9/4/1 8/5/1
f 11/6/1 1/7/1 10/1/1
f 10/1/1 12/8/1 11/6/1
f 6/2/1 7/9/1 2/3/1
f 4/10/1 5/11/1 6/2/1
f 8/5/1 14/12/1 4/10/1
f 8/5/1 3/13/1 13/14/1
f 6/2/1 10/1/1 9/4/1
f 10/1/1 2/3/1 12/8/1
f 8/5/1 4/10/1 6/2/1
f 14/12/1 8/5/1 13/14/1
