# Blender v2.73 (sub 0) OBJ File: 'GreekTemple3.blend'
# www.blender.org
mtllib Wall_back.mtl
o Wall_back_Cube.007
v 4.617296 -3.213106 -0.760202
v -4.617296 -3.213106 -0.760204
v -4.617296 -3.213106 -0.995169
v 4.617296 -3.213106 -0.995167
v 4.617296 3.213106 -0.760202
v -4.617296 3.213106 -0.760204
v -4.617296 3.213106 -0.995169
v 4.617296 3.213106 -0.995167
v 2.770378 3.213106 -0.760202
v 0.923459 3.213106 -0.760203
v -0.923459 3.213106 -0.760203
v -2.770378 3.213106 -0.760204
v -2.770378 -3.213106 -0.760204
v -0.923459 -3.213106 -0.760203
v 0.923459 -3.213106 -0.760203
v 2.770378 -3.213106 -0.760202
v -2.770378 3.213106 -0.995168
v -0.923459 3.213106 -0.995168
v 0.923459 3.213106 -0.995168
v 2.770378 3.213106 -0.995167
v 2.770378 -3.213106 -0.995167
v 0.923459 -3.213106 -0.995167
v -0.923459 -3.213106 -0.995168
v -2.770378 -3.213106 -0.995168
v 4.617296 -1.071035 -0.760202
v 4.617296 1.071035 -0.760202
v -4.617296 1.071035 -0.760204
v -4.617296 -1.071035 -0.760204
v -4.617296 1.071035 -0.995169
v -4.617296 -1.071035 -0.995169
v 4.617296 1.071035 -0.995167
v 4.617296 -1.071035 -0.995167
v -2.770378 1.071035 -0.995168
v -2.770378 -1.071035 -0.995168
v -1.094881 1.071035 -1.016976
v -0.923459 -1.071035 -0.995168
v 1.094881 1.071035 -1.016976
v 0.923459 -1.071035 -0.995167
v 2.770378 1.071035 -0.995167
v 2.770378 -1.071035 -0.995167
v 2.770378 1.071035 -0.760202
v 2.770378 -1.071035 -0.760202
v 1.094881 1.071035 -0.738394
v 0.923459 -1.071035 -0.760203
v -1.094881 1.071035 -0.738395
v -0.923459 -1.071035 -0.760203
v -2.770378 1.071035 -0.760204
v -2.770378 -1.071035 -0.760204
v 0.307820 3.213106 -0.760203
v -0.307820 3.213106 -0.760203
v -0.307820 -3.213106 -0.760203
v 0.307820 -3.213106 -0.760203
v -0.307820 3.213106 -0.995168
v 0.307820 3.213106 -0.995168
v 0.307820 -3.213106 -0.995168
v -0.307820 -3.213106 -0.995168
v -0.307820 1.495607 -0.760203
v 0.307820 1.495607 -0.760203
v -0.307820 -1.071035 -0.760203
v 0.307820 -1.071035 -0.760203
v 0.307820 1.495607 -0.995168
v -0.307820 1.495607 -0.995168
v 0.307820 -1.071035 -0.995168
v -0.307820 -1.071035 -0.995168
v 4.617296 0.000000 -0.760202
v -4.617296 0.000000 -0.760204
v -4.617296 0.000000 -0.995169
v 4.617296 0.000000 -0.995167
v -2.770378 0.000000 -0.995168
v -1.088709 0.000000 -1.016191
v 1.088709 0.000000 -1.016191
v 2.770378 0.000000 -0.995167
v 2.770378 0.000000 -0.760202
v 1.088709 0.000000 -0.739180
v -1.088709 0.000000 -0.739180
v -2.770378 0.000000 -0.760204
vt 0.002494 0.333333
vt 0.002494 0.000000
vt 0.203173 0.000000
vt 1.000000 0.000000
vt 1.000000 1.000000
vt 0.000000 1.000000
vt 0.006987 0.318194
vt 0.006987 -0.015140
vt 0.204115 -0.015140
vt 0.000000 0.000000
vt 0.795501 0.318193
vt 0.795501 -0.015140
vt 0.992630 -0.015140
vt 0.598373 0.318194
vt 0.598373 -0.015140
vt 0.401244 0.318194
vt 0.401244 -0.015140
vt 0.466954 -0.015140
vt 0.204116 0.318194
vt 0.805209 0.333333
vt 0.805209 0.000000
vt 1.005888 0.000000
vt 0.604530 0.333333
vt 0.604530 0.000000
vt 0.403851 0.333334
vt 0.403851 0.000000
vt 0.470744 0.000000
vt 0.203173 0.333334
vt 0.470745 1.000000
vt 0.470744 0.732735
vt 0.537637 1.000000
vt 0.385901 0.499174
vt 0.203173 0.500000
vt 0.622490 0.499174
vt 0.805209 1.000000
vt 0.805209 0.666667
vt 1.005888 0.666667
vt 0.805209 0.500000
vt 1.005888 0.333333
vt 0.532664 0.984860
vt 0.466954 0.984860
vt 0.466954 0.717595
vt 0.383610 0.484034
vt 0.204116 0.484860
vt 0.616014 0.484034
vt 0.795502 0.984860
vt 0.795502 0.651527
vt 0.992630 0.651527
vt 0.795501 0.484860
vt 0.992630 0.318193
vt 0.006987 0.984860
vt 0.006987 0.651527
vt 0.204116 0.651527
vt 0.006987 0.484860
vt 0.002494 1.000000
vt 0.002494 0.666667
vt 0.203173 0.666667
vt 0.002494 0.500000
vt 0.537637 0.333333
vt 0.537637 0.000000
vt 0.470744 0.333333
vt 0.532663 0.318194
vt 0.532663 -0.015140
vt 0.466954 0.318194
vt 0.992630 0.484860
vt 0.616673 0.650670
vt 0.382952 0.650670
vt 1.005888 0.500000
vt 0.623161 0.665809
vt 0.385230 0.665809
vt 0.446275 0.078283
vt 0.523988 0.000000
vt 0.523988 1.000000
vt 0.973137 0.000000
vt 1.000000 0.843434
vt 0.000000 0.078283
vt 0.077713 0.000000
vt 0.077714 1.000000
vt 0.262446 0.997182
vt 0.446275 0.921717
vt 0.262446 0.002819
vt 0.919412 0.843434
vt 0.892550 0.843435
vt 0.892550 0.000002
vt 0.919412 0.000001
vt 0.946275 0.000001
vt 0.973137 0.843434
vt 0.892550 0.921717
vt 0.708721 0.997182
vt 0.708721 0.002818
vt 0.403852 1.000000
vt 0.604530 1.000000
vt 0.203173 1.000000
vt 0.537637 0.732735
vt 1.005888 1.000000
vt 0.401244 0.984860
vt 0.598373 0.984860
vt 0.204116 0.984860
vt 0.532663 0.717596
vt 0.992630 0.984860
vt 0.000000 0.921716
vt 0.946275 0.843434
vt 0.892550 0.078283
vn -0.000000 0.000000 1.000000
vn -1.000000 0.000000 0.000000
vn 0.000000 0.000000 -1.000000
vn 1.000000 0.000000 0.000000
vn 0.000000 -1.000000 0.000000
vn 0.000000 1.000000 0.000000
vn -0.012500 0.000000 0.999900
vn -0.000000 -0.019600 0.999800
vn 0.012500 0.000000 -0.999900
vn 0.000000 -0.019600 -0.999800
vn -0.012500 -0.000800 -0.999900
vn 0.013000 0.000000 -0.999900
vn 0.012500 -0.000800 0.999900
vn -0.013000 0.000000 0.999900
vn 0.474800 -0.880100 -0.000000
vn -0.474800 -0.880100 0.000000
vn -1.000000 0.005800 -0.000000
vn -0.988300 0.152500 -0.000000
vn 0.988300 0.152500 0.000000
vn 1.000000 0.005800 0.000000
vn -0.000000 0.010200 0.999900
vn 0.013000 0.000000 0.999900
vn 0.023200 0.008300 0.999700
vn -0.023200 0.008300 0.999700
vn 0.012500 0.000000 0.999900
vn -0.013000 0.000000 -0.999900
vn -0.023200 0.008300 -0.999700
vn 0.000000 0.010200 -0.999900
vn 0.023200 0.008300 -0.999700
vn -0.012500 0.000000 -0.999900
vn 0.012500 -0.000800 -0.999900
vn -0.012500 -0.000800 0.999900
usemtl Material.002
s off
f 28/1/1 2/2/1 13/3/1
f 30/4/2 3/5/2 2/6/2
f 32/7/3 4/8/3 21/9/3
f 25/4/4 1/5/4 4/6/4
f 2/4/5 3/5/5 24/6/5
f 17/10/6 7/4/6 6/5/6
f 8/10/6 20/4/6 9/5/6
f 19/4/6 10/5/6 9/6/6
f 53/10/6 18/4/6 11/5/6
f 17/4/6 12/5/6 11/6/6
f 16/4/5 21/5/5 4/6/5
f 15/4/5 22/5/5 21/6/5
f 14/4/5 23/5/5 56/6/5
f 13/4/5 24/5/5 23/6/5
f 34/11/3 24/12/3 3/13/3
f 36/14/3 23/15/3 24/12/3
f 38/16/3 22/17/3 55/18/3
f 40/19/3 21/9/3 22/17/3
f 42/20/1 16/21/1 1/22/1
f 44/23/1 15/24/1 16/21/1
f 46/25/1 14/26/1 51/27/1
f 48/28/1 13/3/1 14/26/1
f 50/29/1 57/30/1 49/31/1
f 75/32/7 76/33/7 48/28/7
f 74/34/8 44/23/8 42/20/8
f 9/35/1 41/36/1 26/37/1
f 73/38/1 42/20/1 25/39/1
f 53/40/3 54/41/3 61/42/3
f 71/43/9 72/44/9 40/19/9
f 70/45/10 36/14/10 34/11/10
f 17/46/3 33/47/3 29/48/3
f 69/49/3 34/11/3 30/50/3
f 5/4/4 26/5/4 31/6/4
f 65/4/4 25/5/4 32/6/4
f 8/51/3 31/52/3 39/53/3
f 68/54/3 32/7/3 40/19/3
f 7/4/2 29/5/2 27/6/2
f 67/4/2 30/5/2 28/6/2
f 6/55/1 27/56/1 47/57/1
f 66/58/1 28/1/1 48/28/1
f 60/59/1 52/60/1 15/24/1
f 59/61/1 51/27/1 52/60/1
f 64/62/3 56/63/3 23/15/3
f 63/64/3 55/18/3 56/63/3
f 52/4/5 55/5/5 22/6/5
f 51/4/5 56/5/5 55/6/5
f 19/10/6 54/4/6 49/5/6
f 53/4/6 50/5/6 49/6/6
f 27/56/1 66/58/1 76/33/1
f 29/4/2 67/5/2 66/6/2
f 31/52/3 68/54/3 72/44/3
f 26/4/4 65/5/4 68/6/4
f 33/47/3 69/49/3 67/65/3
f 35/66/11 70/45/11 69/49/11
f 37/67/12 39/53/12 72/44/12
f 41/36/1 73/38/1 65/68/1
f 43/69/13 74/34/13 73/38/13
f 45/70/14 47/57/14 76/33/14
f 57/71/15 45/72/15 35/73/15
f 62/74/5 61/4/5 58/75/5
f 61/76/16 37/77/16 43/78/16
f 74/79/17 43/78/17 37/77/17
f 44/80/18 74/79/18 71/81/18
f 60/82/6 44/83/6 38/84/6
f 60/82/6 63/85/6 64/86/6
f 64/86/6 36/74/6 46/87/6
f 36/88/19 70/89/19 75/90/19
f 35/73/20 45/72/20 75/90/20
f 48/28/1 28/1/1 13/3/1
f 28/10/2 30/4/2 2/6/2
f 40/19/3 32/7/3 21/9/3
f 32/10/4 25/4/4 4/6/4
f 13/10/5 2/4/5 24/6/5
f 12/6/6 17/10/6 6/5/6
f 5/6/6 8/10/6 9/5/6
f 20/10/6 19/4/6 9/6/6
f 50/6/6 53/10/6 11/5/6
f 18/10/6 17/4/6 11/6/6
f 1/10/5 16/4/5 4/6/5
f 16/10/5 15/4/5 21/6/5
f 51/10/5 14/4/5 56/6/5
f 14/10/5 13/4/5 23/6/5
f 30/50/3 34/11/3 3/13/3
f 34/11/3 36/14/3 24/12/3
f 63/64/3 38/16/3 55/18/3
f 38/16/3 40/19/3 22/17/3
f 25/39/1 42/20/1 1/22/1
f 42/20/1 44/23/1 16/21/1
f 59/61/1 46/25/1 51/27/1
f 46/25/1 48/28/1 14/26/1
f 57/30/1 50/29/1 11/91/1
f 43/69/21 9/35/21 10/92/21
f 45/70/21 11/91/21 12/93/21
f 58/94/1 10/92/1 49/31/1
f 9/35/22 43/69/22 41/36/22
f 11/91/23 45/70/23 57/30/23
f 58/94/24 43/69/24 10/92/24
f 12/93/14 47/57/14 45/70/14
f 57/30/1 58/94/1 49/31/1
f 46/25/8 75/32/8 48/28/8
f 73/38/25 74/34/25 42/20/25
f 5/95/1 9/35/1 26/37/1
f 65/68/1 73/38/1 25/39/1
f 35/66/26 33/47/26 17/46/26
f 19/96/27 37/67/27 61/42/27
f 18/97/28 35/66/28 17/46/28
f 20/98/12 39/53/12 37/67/12
f 18/97/29 62/99/29 35/66/29
f 61/42/3 54/41/3 19/96/3
f 53/40/3 62/99/3 18/97/3
f 37/67/28 19/96/28 20/98/28
f 61/42/3 62/99/3 53/40/3
f 38/16/10 71/43/10 40/19/10
f 69/49/30 70/45/30 34/11/30
f 7/100/3 17/46/3 29/48/3
f 67/65/3 69/49/3 30/50/3
f 8/10/4 5/4/4 31/6/4
f 68/10/4 65/4/4 32/6/4
f 20/98/3 8/51/3 39/53/3
f 72/44/3 68/54/3 40/19/3
f 6/10/2 7/4/2 27/6/2
f 66/10/2 67/4/2 28/6/2
f 12/93/1 6/55/1 47/57/1
f 76/33/1 66/58/1 48/28/1
f 44/23/1 60/59/1 15/24/1
f 60/59/1 59/61/1 52/60/1
f 36/14/3 64/62/3 23/15/3
f 64/62/3 63/64/3 56/63/3
f 15/10/5 52/4/5 22/6/5
f 52/10/5 51/4/5 55/6/5
f 10/6/6 19/10/6 49/5/6
f 54/10/6 53/4/6 49/6/6
f 47/57/1 27/56/1 76/33/1
f 27/10/2 29/4/2 66/6/2
f 39/53/3 31/52/3 72/44/3
f 31/10/4 26/4/4 68/6/4
f 29/48/3 33/47/3 67/65/3
f 33/47/26 35/66/26 69/49/26
f 71/43/31 37/67/31 72/44/31
f 26/37/1 41/36/1 65/68/1
f 41/36/22 43/69/22 73/38/22
f 75/32/32 45/70/32 76/33/32
f 62/80/15 57/71/15 35/73/15
f 57/87/5 62/74/5 58/75/5
f 58/101/16 61/76/16 43/78/16
f 71/81/17 74/79/17 37/77/17
f 38/71/18 44/80/18 71/81/18
f 63/85/6 60/82/6 38/84/6
f 59/102/6 60/82/6 64/86/6
f 59/102/6 64/86/6 46/87/6
f 46/103/19 36/88/19 75/90/19
f 70/89/20 35/73/20 75/90/20
