# Blender v2.73 (sub 0) OBJ File: 'GreekTemple3.blend'
# www.blender.org
mtllib Wall_Right.mtl
o Wall_Right_Cube.005
v -0.107482 -3.213106 12.812566
v -0.107482 -3.213106 -12.812566
v 0.107482 -3.213106 -12.812566
v 0.107482 -3.213106 12.812566
v -0.107482 3.213106 12.812566
v -0.107482 3.213106 -12.812566
v 0.107482 3.213106 -12.812566
v 0.107482 3.213106 12.812566
v -0.107482 3.213106 6.406283
v -0.107482 3.213106 0.000000
v -0.107482 3.213106 -6.406283
v -0.107482 -3.213106 -6.406283
v -0.107482 -3.213106 0.000000
v -0.107482 -3.213106 6.406283
v 0.107482 3.213106 -6.406283
v 0.107482 3.213106 0.000000
v 0.107482 3.213106 6.406283
v 0.107482 -3.213106 6.406283
v 0.107482 -3.213106 0.000000
v 0.107482 -3.213106 -6.406283
v -0.107482 3.213106 4.270855
v -0.107482 3.213106 2.135427
v -0.107482 -3.213106 2.135428
v -0.107482 -3.213106 4.270855
v 0.107482 3.213106 2.135428
v 0.107482 3.213106 4.270855
v 0.107482 -3.213106 4.270855
v 0.107482 -3.213106 2.135427
v -0.107482 3.213106 -2.135428
v -0.107482 3.213106 -4.270855
v -0.107482 -3.213106 -4.270855
v -0.107482 -3.213106 -2.135427
v 0.107482 3.213106 -4.270855
v 0.107482 3.213106 -2.135427
v 0.107482 -3.213106 -2.135428
v 0.107482 -3.213106 -4.270855
v -0.107482 -3.213106 8.541711
v -0.107482 -3.213106 10.677138
v 0.107482 3.213106 8.541711
v 0.107482 3.213106 10.677138
v -0.107482 3.213106 10.677138
v -0.107482 3.213106 8.541710
v 0.107482 -3.213106 10.677138
v 0.107482 -3.213106 8.541710
v -0.376188 3.213106 6.406283
v -0.376188 3.213106 0.000000
v -0.376188 -3.213106 0.000000
v -0.376188 -3.213106 6.406283
v -0.376188 3.213106 4.270855
v -0.376188 3.213106 2.135427
v -0.376188 -3.213106 2.135428
v -0.376188 -3.213106 4.270855
v -0.376188 3.213106 -2.135428
v -0.376188 3.213106 -4.270855
v -0.376188 -3.213106 -4.270855
v -0.376188 -3.213106 -2.135427
v -0.376188 -3.213106 8.541711
v -0.376188 -3.213106 10.677138
v -0.376188 3.213106 10.677138
v -0.376188 3.213106 8.541710
vt -0.470820 0.244520
vt -0.470819 2.288348
vt -0.956229 2.288348
vt -0.470819 3.310264
vt 1.470818 3.310264
vt 1.470818 5.354092
vt 3.412456 -2.310264
vt 3.412456 -4.354093
vt 3.574259 -4.354093
vt 3.412455 3.310264
vt 3.412456 5.354092
vt -2.412456 -2.310264
vt -2.412456 -4.354092
vt -1.927047 -4.354092
vt -2.897865 -2.310265
vt -3.868683 -4.354092
vt -3.868683 -2.310265
vt -4.030486 -2.310265
vt -3.383274 -4.354093
vt -3.383274 -2.310265
vt -3.545077 -2.310265
vt -2.897865 -4.354093
vt -3.059668 -2.310265
vt -0.956228 -2.310265
vt -0.956228 -4.354093
vt -0.794425 -4.354093
vt -1.441637 -2.310265
vt -1.441638 -4.354093
vt -1.279835 -4.354093
vt -1.927046 -2.310265
vt -1.765244 -4.354093
vt 4.868684 -2.310264
vt 4.868684 -4.354093
vt 5.354093 -4.354093
vt 4.383274 -2.310264
vt 4.383274 -4.354093
vt 4.545077 -4.354093
vt 3.897865 -2.310264
vt 3.897865 -4.354093
vt 4.059668 -4.354093
vt -1.927049 0.244520
vt -1.927049 2.288348
vt -2.088852 2.288348
vt -3.383274 0.244520
vt -3.545077 0.244520
vt -0.956229 0.244520
vt -1.118032 2.288348
vt 3.412455 0.755479
vt 3.574259 -2.310264
vt 3.574259 -0.266436
vt 3.412457 -0.266436
vt 4.221472 -2.310264
vt 4.221472 -4.354093
vt 4.059668 -2.310264
vt -1.118031 -2.310265
vt -1.118031 -4.354093
vt -1.279834 -2.310265
vt -3.706880 -4.354093
vt -3.706880 -2.310265
vt -3.545077 -4.354093
vt -1.603442 0.244520
vt -1.603442 2.288348
vt -1.765245 2.288348
vt -1.118031 0.244520
vt 4.706880 -2.310264
vt 4.706880 -4.354093
vt 4.545077 -2.310264
vt -1.603440 -2.310265
vt -1.603441 -4.354093
vt -1.765243 -2.310265
vt -3.221471 -4.354093
vt -3.221471 -2.310265
vt -3.059668 -4.354093
vt -1.279835 0.244520
vt -1.279835 2.288348
vt -1.441638 2.288348
vt -2.412456 0.244520
vt -2.412455 2.799306
vt -4.354092 2.799306
vt -0.632622 -2.310265
vt -0.632622 -4.354093
vt -0.470819 -4.354093
vt -0.794425 -2.310265
vt -4.192290 -4.354092
vt -4.192289 -2.310264
vt -4.354092 -2.310264
vt -4.030487 -4.354092
vt 3.736062 -2.310264
vt 3.736062 -4.354093
vt -1.441639 0.244520
vt -2.250655 2.288348
vt -2.250655 0.244520
vt -2.088852 0.244520
vt -1.765246 0.244520
vt 1.470818 0.755479
vt 1.470818 -4.354093
vt 1.470818 -1.799307
vt -0.470819 -1.799307
vt -0.470819 0.755479
vt -3.059667 0.244520
vt -3.221471 0.244520
vt -4.030486 0.244520
vt -4.192289 0.244520
vt 3.412456 -1.799307
vt -3.706880 0.244520
vt -3.868683 0.244520
vt -0.632621 0.244520
vt -0.794425 0.244520
vt -2.412455 5.354092
vt -4.354092 5.354092
vt -0.470819 5.354093
vt 5.354093 -2.310265
vt -4.354093 0.244520
vt -0.470819 -2.310265
vt -4.354093 -4.354092
vn -1.000000 0.000000 0.000000
vn 0.000000 0.000000 -1.000000
vn 1.000000 0.000000 0.000000
vn 0.000000 0.000000 1.000000
vn 0.000000 -1.000000 0.000000
vn 0.000000 1.000000 0.000000
usemtl Material.003
s off
f 6/1/1 2/2/1 12/3/1
f 7/4/2 3/5/2 2/6/2
f 8/7/3 4/8/3 43/9/3
f 5/10/4 1/11/4 4/6/4
f 2/12/5 3/13/5 20/14/5
f 7/13/6 6/12/6 11/15/6
f 17/16/6 9/17/6 42/18/6
f 16/19/6 10/20/6 22/21/6
f 15/22/6 11/15/6 30/23/6
f 14/24/5 18/25/5 44/26/5
f 13/27/5 19/28/5 28/29/5
f 12/30/5 20/14/5 36/31/5
f 15/32/3 20/33/3 3/34/3
f 16/35/3 19/36/3 35/37/3
f 17/38/3 18/39/3 27/40/3
f 9/41/1 14/42/1 37/43/1
f 10/20/6 46/44/6 50/45/6
f 11/46/1 12/3/1 31/47/1
f 31/48/2 55/10/2 54/5/2
f 22/49/1 23/50/1 24/51/1
f 25/52/3 28/53/3 19/36/3
f 26/54/3 27/40/3 28/53/3
f 24/55/5 27/56/5 18/25/5
f 23/57/5 28/29/5 27/56/5
f 26/58/6 21/59/6 9/17/6
f 25/60/6 22/21/6 21/59/6
f 29/61/1 32/62/1 13/63/1
f 14/24/5 48/46/5 52/64/5
f 33/65/3 36/66/3 20/33/3
f 34/67/3 35/37/3 36/66/3
f 32/68/5 35/69/5 19/28/5
f 31/70/5 36/31/5 35/69/5
f 34/71/6 29/72/6 10/20/6
f 33/73/6 30/23/6 29/72/6
f 41/74/1 38/75/1 1/76/1
f 41/77/4 59/78/4 58/79/4
f 38/80/5 43/81/5 4/82/5
f 37/83/5 44/26/5 43/81/5
f 40/84/6 41/85/6 5/86/6
f 39/87/6 42/18/6 41/85/6
f 39/88/3 44/89/3 18/39/3
f 40/49/3 43/9/3 44/89/3
f 46/90/1 47/76/1 51/62/1
f 49/64/1 52/47/1 48/75/1
f 54/91/1 55/92/1 56/93/1
f 60/94/1 57/63/1 58/42/1
f 9/95/4 45/5/4 48/4/4
f 24/96/2 52/97/2 49/98/2
f 32/68/5 56/61/5 55/94/5
f 37/97/2 57/95/2 60/99/2
f 30/23/6 54/100/6 53/101/6
f 42/18/6 60/102/6 59/103/6
f 23/57/5 51/74/5 47/90/5
f 29/8/4 53/104/4 56/97/4
f 21/59/6 49/105/6 45/106/6
f 38/80/5 58/107/5 57/108/5
f 13/78/2 47/109/2 46/110/2
f 22/104/4 50/48/4 51/95/4
f 11/46/1 6/1/1 12/3/1
f 6/111/2 7/4/2 2/6/2
f 40/49/3 8/7/3 43/9/3
f 8/5/4 5/10/4 4/6/4
f 12/30/5 2/12/5 20/14/5
f 15/22/6 7/13/6 11/15/6
f 39/87/6 17/16/6 42/18/6
f 25/60/6 16/19/6 22/21/6
f 33/73/6 15/22/6 30/23/6
f 37/83/5 14/24/5 44/26/5
f 23/57/5 13/27/5 28/29/5
f 31/70/5 12/30/5 36/31/5
f 7/112/3 15/32/3 3/34/3
f 34/67/3 16/35/3 35/37/3
f 26/54/3 17/38/3 27/40/3
f 42/93/1 9/41/1 37/43/1
f 22/21/6 10/20/6 50/45/6
f 30/64/1 11/46/1 31/47/1
f 30/95/2 31/48/2 54/5/2
f 21/7/1 22/49/1 24/51/1
f 16/35/3 25/52/3 19/36/3
f 25/52/3 26/54/3 28/53/3
f 14/24/5 24/55/5 18/25/5
f 24/55/5 23/57/5 27/56/5
f 17/16/6 26/58/6 9/17/6
f 26/58/6 25/60/6 21/59/6
f 10/94/1 29/61/1 13/63/1
f 24/55/5 14/24/5 52/64/5
f 15/32/3 33/65/3 20/33/3
f 33/65/3 34/67/3 36/66/3
f 13/27/5 32/68/5 19/28/5
f 32/68/5 31/70/5 35/69/5
f 16/19/6 34/71/6 10/20/6
f 34/71/6 33/73/6 29/72/6
f 5/90/1 41/74/1 1/76/1
f 38/113/4 41/77/4 58/79/4
f 1/114/5 38/80/5 4/82/5
f 38/80/5 37/83/5 43/81/5
f 8/115/6 40/84/6 5/86/6
f 40/84/6 39/87/6 41/85/6
f 17/38/3 39/88/3 18/39/3
f 39/88/3 40/49/3 44/89/3
f 50/61/1 46/90/1 51/62/1
f 45/74/1 49/64/1 48/75/1
f 53/43/1 54/91/1 56/93/1
f 59/41/1 60/94/1 58/42/1
f 14/99/4 9/95/4 48/4/4
f 21/82/2 24/96/2 49/98/2
f 31/70/5 32/68/5 55/94/5
f 42/98/2 37/97/2 60/99/2
f 29/72/6 30/23/6 53/101/6
f 41/85/6 42/18/6 59/103/6
f 13/27/5 23/57/5 47/90/5
f 32/96/4 29/8/4 56/97/4
f 9/17/6 21/59/6 45/106/6
f 37/83/5 38/80/5 57/108/5
f 10/79/2 13/78/2 46/110/2
f 23/97/4 22/104/4 51/95/4
