# Blender v2.73 (sub 0) OBJ File: "cubeYukiYuna'.blend"
# www.blender.org
mtllib cube2.mtl
o Cube
v 1.000000 -1.000000 -1.000000
v 1.000000 -1.000000 1.000000
v -1.000000 -1.000000 1.000000
v -1.000000 -1.000000 -1.000000
v 1.000000 1.000000 -1.000000
v 0.999999 1.000000 1.000001
v -1.000000 1.000000 1.000000
v -1.000000 1.000000 -1.000000
vt 0.133533 0.951800
vt 0.133533 0.757533
vt 0.466467 0.757533
vt 0.123533 0.967800
vt 0.123533 0.768200
vt 0.456467 0.768200
vt 0.523133 0.783800
vt 0.006866 0.783800
vt 0.000200 0.333533
vt 0.473133 0.749133
vt 0.273533 0.749134
vt 0.270200 0.410866
vt 0.936968 0.476525
vt 0.940609 0.989815
vt 0.427318 0.999137
vt 0.843134 0.997133
vt 0.510200 0.997133
vt 0.520200 0.461533
vt 0.466467 0.951800
vt 0.456467 0.967800
vt 0.516467 0.333533
vt 0.469800 0.410866
vt 0.423677 0.485846
vt 0.853134 0.461533
vn 0.000000 -1.000000 0.000000
vn 0.000000 1.000000 0.000000
vn 1.000000 0.000000 0.000000
vn -0.000000 0.000000 1.000000
vn -1.000000 -0.000000 -0.000000
vn 0.000000 0.000000 -1.000000
usemtl Material
s off
f 2/1/1 3/2/1 4/3/1
f 8/4/2 7/5/2 6/6/2
f 5/7/3 6/8/3 2/9/3
f 6/10/4 7/11/4 3/12/4
f 3/13/5 7/14/5 8/15/5
f 1/16/6 4/17/6 8/18/6
f 1/19/1 2/1/1 4/3/1
f 5/20/2 8/4/2 6/6/2
f 1/21/3 5/7/3 2/9/3
f 2/22/4 6/10/4 3/12/4
f 4/23/5 3/13/5 8/15/5
f 5/24/6 1/16/6 8/18/6
