# Blender v2.73 (sub 0) OBJ File: 'GreekTemplePillar.blend'
# www.blender.org
mtllib GreekTempleStairs.mtl
o Stairs.001_Cube.030
v -1.722957 -0.296153 1.382315
v -1.722957 -0.296153 -1.382315
v 1.722957 -0.296153 -1.382315
v 1.722957 -0.296153 1.382315
v -1.722957 -0.091014 1.382315
v -1.722957 0.715104 -1.382315
v 1.722957 0.715104 -1.382315
v 1.722957 -0.091014 1.382315
v -1.722957 0.090611 0.829389
v -1.722957 0.288697 0.276463
v -1.722957 0.477367 -0.276463
v -1.722957 0.715104 -0.829389
v -1.722957 -0.296153 -0.829389
v -1.722957 -0.296153 -0.276463
v -1.722957 -0.296153 0.276463
v -1.722957 -0.296153 0.829389
v 1.722957 0.715104 -0.829389
v 1.722957 0.477367 -0.276463
v 1.722957 0.288697 0.276463
v 1.722957 0.090611 0.829389
v 1.722957 -0.296153 0.829389
v 1.722957 -0.296153 0.276463
v 1.722957 -0.296153 -0.276463
v 1.722957 -0.296153 -0.829389
v -1.722957 0.477367 -0.829389
v -1.722957 -0.296153 -0.829389
v 1.722957 0.477367 -0.829389
v 1.722957 -0.296153 -0.829389
v -1.722957 0.288697 -0.276463
v -1.722957 -0.296153 -0.276463
v 1.722957 0.288697 -0.276463
v 1.722957 -0.296153 -0.276463
v -1.722957 0.090611 0.276463
v -1.722957 -0.296153 0.276463
v 1.722957 0.090611 0.276463
v 1.722957 -0.296153 0.276463
v -1.722957 -0.296153 0.829389
v 1.722957 -0.091014 0.829389
v -1.722957 -0.091014 0.829389
v 1.722957 -0.296153 0.829389
vt 0.406154 0.746881
vt 0.406154 0.500000
vt 0.506459 0.500000
vt 0.000000 0.000000
vt 0.247633 0.000000
vt 0.247633 0.500000
vt 0.850284 0.800000
vt 0.800051 0.800000
vt 0.800051 0.700000
vt 1.000000 0.500000
vt 0.949766 0.500000
vt 0.949766 0.000000
vt 0.849461 0.500000
vt 0.849461 0.000000
vt 0.749157 0.000000
vt 0.749157 0.500000
vt 0.648852 0.500000
vt 0.699746 0.500000
vt 0.699746 1.000000
vt 0.655270 1.000000
vt 0.655270 0.500000
vt 0.606764 1.000000
vt 0.347938 0.500000
vt 0.347938 1.000000
vt 0.301737 1.000000
vt 0.406154 1.000000
vt 0.506459 0.746881
vt 0.606763 0.500000
vt 0.699746 0.877683
vt 0.699746 0.688841
vt 0.800051 0.688841
vt 0.606763 0.746881
vt 0.606763 0.889662
vt 0.506459 0.889662
vt 0.800051 0.500000
vt 0.894760 0.500000
vt 0.894760 0.600000
vt 0.548547 0.500000
vt 0.548547 0.000000
vt 0.648852 0.000000
vt 0.200609 1.000000
vt 0.200609 0.500000
vt 0.300914 0.500000
vt 0.406154 0.889662
vt 0.347938 0.000000
vt 0.448242 0.000000
vt 0.448243 0.500000
vt 0.800051 0.600000
vt 0.894760 0.700000
vt 0.100305 1.000000
vt 0.850284 0.700000
vt 0.900518 0.700000
vt 0.900518 0.800000
vt 0.000000 1.000000
vt 0.000000 0.500000
vt 0.100305 0.500000
vt 1.000000 0.000000
vt 0.301737 0.500000
vt 0.800051 0.877683
vt 0.300914 1.000000
vn -1.000000 0.000000 0.000000
vn 0.000000 0.000000 -1.000000
vn 1.000000 0.000000 0.000000
vn 0.000000 0.000000 1.000000
vn 0.000000 -1.000000 0.000000
vn 0.000000 1.000000 0.000000
usemtl Stairs
s off
f 6/1/1 2/2/1 13/3/1
f 7/4/2 3/5/2 2/6/2
f 8/7/3 4/8/3 40/9/3
f 5/10/4 1/11/4 4/12/4
f 2/13/5 3/14/5 24/12/5
f 7/15/6 6/16/6 12/17/6
f 20/18/4 9/19/4 39/20/4
f 19/21/4 10/20/4 33/22/4
f 18/23/4 11/24/4 29/25/4
f 17/2/4 12/26/4 25/24/4
f 37/4/4 16/4/4 21/4/4
f 34/4/4 15/4/4 22/4/4
f 30/4/4 14/4/4 23/4/4
f 26/4/4 13/4/4 24/4/4
f 17/27/3 24/3/3 3/28/3
f 18/29/3 23/30/3 28/31/3
f 19/32/3 22/33/3 32/34/3
f 20/35/3 21/36/3 36/37/3
f 39/4/4 9/4/4 16/4/4
f 33/4/4 10/4/4 15/4/4
f 29/4/4 11/4/4 14/4/4
f 25/4/1 12/4/1 13/4/1
f 25/35/1 26/31/1 14/30/1
f 17/4/3 27/4/3 28/4/3
f 26/38/5 28/39/5 23/40/5
f 27/41/6 25/42/6 11/43/6
f 29/27/1 30/34/1 15/44/1
f 18/4/4 31/4/4 32/4/4
f 30/6/5 32/5/5 22/45/5
f 31/46/6 29/47/6 10/23/6
f 33/48/1 34/37/1 16/49/1
f 19/4/3 35/4/3 36/4/3
f 34/42/5 36/41/5 21/50/5
f 35/39/6 33/38/6 9/47/6
f 39/51/1 37/52/1 1/53/1
f 37/54/5 40/55/5 4/56/5
f 38/14/6 39/13/6 5/16/6
f 20/4/4 38/4/4 40/4/4
f 12/27/1 6/1/1 13/3/1
f 6/55/2 7/4/2 2/6/2
f 38/51/3 8/7/3 40/9/3
f 8/57/4 5/10/4 4/12/4
f 13/11/5 2/13/5 24/12/5
f 17/40/6 7/15/6 12/17/6
f 38/21/4 20/18/4 39/20/4
f 35/28/4 19/21/4 33/22/4
f 31/58/4 18/23/4 29/25/4
f 27/23/4 17/2/4 25/24/4
f 40/4/4 37/4/4 21/4/4
f 36/4/4 34/4/4 22/4/4
f 32/4/4 30/4/4 23/4/4
f 28/4/4 26/4/4 24/4/4
f 7/32/3 17/27/3 3/28/3
f 27/59/3 18/29/3 28/31/3
f 31/27/3 19/32/3 32/34/3
f 35/48/3 20/35/3 36/37/3
f 37/4/4 39/4/4 16/4/4
f 34/4/4 33/4/4 15/4/4
f 30/4/4 29/4/4 14/4/4
f 26/4/4 25/4/4 13/4/4
f 11/18/1 25/35/1 14/30/1
f 24/4/4 17/4/4 28/4/4
f 14/17/5 26/38/5 23/40/5
f 18/60/6 27/41/6 11/43/6
f 10/1/1 29/27/1 15/44/1
f 23/4/4 18/4/4 32/4/4
f 15/23/5 30/6/5 22/45/5
f 19/45/6 31/46/6 10/23/6
f 9/9/1 33/48/1 16/49/1
f 22/4/4 19/4/4 36/4/4
f 16/56/5 34/42/5 21/50/5
f 20/46/6 35/39/6 9/47/6
f 5/7/1 39/51/1 1/53/1
f 1/50/5 37/54/5 4/56/5
f 8/15/6 38/14/6 5/16/6
f 21/4/4 20/4/4 40/4/4
