# Blender v2.73 (sub 0) OBJ File: 'GreekTemplePillar.blend'
# www.blender.org
mtllib GreekTempleFloor.mtl
o Floor1.001_Cube.028
v -8.480062 0.123297 17.133398
v -8.480062 0.123297 -17.494503
v -8.480062 -0.123297 -17.494503
v -8.480062 -0.123297 17.133398
v -1.751822 0.123297 17.133398
v -1.751822 -0.123297 17.133398
v 8.480062 0.123297 17.133398
v 8.480062 0.123297 -17.494503
v -1.751822 0.123297 15.224992
v 1.751822 0.123297 15.224992
v 1.751822 0.123297 17.133398
v 8.480062 -0.123297 -17.494503
v 8.480062 -0.123297 17.133398
v 1.751822 -0.123297 17.133398
v 1.751822 -0.123297 15.224992
v -1.751822 -0.123297 15.224992
vt 0.986467 0.327219
vt 0.500075 0.326913
vt 0.500663 0.015305
vt 0.540768 0.885784
vt 0.054377 0.885478
vt 0.054610 0.761860
vt 0.951367 0.919681
vt 0.019710 0.918920
vt 0.390472 0.116623
vt 0.985879 0.638827
vt 0.499487 0.638522
vt 0.540647 0.950156
vt 0.541235 0.638548
vt 0.961140 0.762430
vt 0.541002 0.762166
vt 0.054843 0.638242
vt 0.014272 0.014999
vt 0.054223 0.967024
vt 0.540614 0.967330
vt 0.540582 0.984503
vt 0.054255 0.949851
vt 0.987055 0.015610
vt 0.582935 0.116780
vt 0.583002 0.069967
vt 0.952600 0.070269
vt 0.020942 0.069508
vt 0.390540 0.069810
vt 0.961019 0.826802
vt 0.985524 0.826818
vt 0.985290 0.950436
vt 0.985645 0.762445
vt 0.013684 0.326608
vt 0.054191 0.984198
vn -1.000000 0.000000 0.000000
vn 0.000000 0.000000 1.000000
vn 0.000000 1.000000 0.000000
vn 0.000000 0.000000 -1.000000
vn 0.000000 -1.000000 0.000000
vn 1.000000 0.000000 0.000000
usemtl FloorTop
s off
f 2/1/1 3/2/1 4/3/1
f 1/4/2 4/5/2 6/6/2
f 8/7/3 2/8/3 9/9/3
f 8/10/4 12/11/4 3/2/4
f 3/12/5 12/13/5 15/14/5
f 11/15/2 14/6/2 13/16/2
f 7/17/6 13/3/6 12/2/6
f 5/18/6 6/19/6 16/20/6
f 9/12/2 16/21/2 15/5/2
f 14/21/1 11/12/1 10/19/1
f 1/22/1 2/1/1 4/3/1
f 5/15/2 1/4/2 6/6/2
f 10/23/3 11/24/3 7/25/3
f 1/26/3 5/27/3 9/9/3
f 10/23/3 7/25/3 8/7/3
f 2/8/3 1/26/3 9/9/3
f 9/9/3 10/23/3 8/7/3
f 2/1/4 8/10/4 3/2/4
f 16/28/5 6/29/5 4/30/5
f 13/10/5 14/31/5 15/14/5
f 16/28/5 4/30/5 3/12/5
f 12/13/5 13/10/5 15/14/5
f 15/14/5 16/28/5 3/12/5
f 7/13/2 11/15/2 13/16/2
f 8/32/6 7/17/6 12/2/6
f 9/33/6 5/18/6 16/20/6
f 10/4/2 9/12/2 15/5/2
f 15/18/1 14/21/1 10/19/1
